<svg width="774" height="640" xmlns="http://www.w3.org/2000/svg" color="#000" color-interpolation="srgb" color-interpolation-filters="linearrgb" flood-color="#000" flood-opacity="1" font-family="&quot;Helvetica Neue&quot;, Helvetica, Arial, sans-serif" font-size="14" font-stretch="100%" font-weight="400" lighting-color="#FFF" overflow="hidden" text-decoration="rgb(0, 0, 0)" word-spacing="0" writing-mode="horizontal-tb" style="font-feature-settings:normal;font-variant-alternates:normal;font-variant-caps:normal;font-variant-east-asian:normal;font-variant-ligatures:normal;font-variant-numeric:normal;font-variant-position:normal;font-variation-settings:normal;isolation:auto;text-align:start;text-decoration-color:#000;text-decoration-line:none;text-decoration-style:solid;text-indent:0;text-orientation:mixed"><g fill="#E0FFFF" fill-opacity=".5"><path d="M387 543.435 516 320H258zM645 96.565H387L516 320zM129 96.565 258 320 387 96.565z"/><path d="M0 320h258L129 96.565zM516 320 387 96.565 258 320zM774 320 645 96.565 516 320z"/></g><path fill="#C4B5D7" d="M774 320 645 96.565H129L0 320h258l129 223.435L516 320z"/><text font-size="7.875" text-anchor="end" transform="translate(447.108 429.717)" color="#FFF" font-weight="700" text-decoration="rgb(255, 255, 255)" style="text-align:center;text-decoration-color:#fff">B</text><path stroke="#D1D1D1" stroke-width="2" d="M387 543.435 516 320"/><text font-size="7.875" text-anchor="end" transform="translate(522 112.565)" color="#FFF" font-weight="700" text-decoration="rgb(255, 255, 255)" style="text-align:center;text-decoration-color:#fff">A</text><path stroke="#D1D1D1" stroke-width="2" d="M645 96.565H387"/><text font-size="7.875" text-anchor="end" transform="translate(135 312)" color="#FFF" font-weight="700" text-decoration="rgb(255, 255, 255)" style="text-align:center;text-decoration-color:#fff">A</text><path stroke="#D1D1D1" stroke-width="2" d="M0 320h258"/><text font-size="7.875" text-anchor="end" transform="translate(80.892 218.283)" color="#FFF" font-weight="700" text-decoration="rgb(255, 255, 255)" style="text-align:center;text-decoration-color:#fff">B</text><path stroke="#D1D1D1" stroke-width="2" d="M129 96.565 0 320"/><g><text font-size="7.875" text-anchor="end" transform="translate(705.108 218.283)" color="#FFF" font-weight="700" text-decoration="rgb(255, 255, 255)" style="text-align:center;text-decoration-color:#fff">D</text><path stroke="#D1D1D1" stroke-width="2" d="M774 320 645 96.565"/></g><g><text font-size="7.875" text-anchor="end" transform="translate(264 112.565)" color="#FFF" font-weight="700" text-decoration="rgb(255, 255, 255)" style="text-align:center;text-decoration-color:#fff">C</text><path stroke="#D1D1D1" stroke-width="2" d="M387 106.565v2"/><path d="m384 108.565 3-12 3 12z"/><path stroke="#D1D1D1" stroke-width="2" d="M387 96.565H129"/></g><g><text font-size="7.875" text-anchor="end" transform="translate(338.892 429.717)" color="#FFF" font-weight="700" text-decoration="rgb(255, 255, 255)" style="text-align:center;text-decoration-color:#fff">D</text><path stroke="#D1D1D1" stroke-width="2" d="m258 320 129 223.435"/></g><g><text font-size="7.875" text-anchor="end" transform="translate(651 312)" color="#FFF" font-weight="700" text-decoration="rgb(255, 255, 255)" style="text-align:center;text-decoration-color:#fff">C</text><path stroke="#D1D1D1" stroke-width="2" d="M516 320h258"/></g><g><path stroke="#DDD" stroke-dasharray="8px, 6px" stroke-width="2" d="M258 320 129 96.565M387 96.565 516 320M258 320 387 96.565M516 320 645 96.565M516 320H258"/></g></svg>